<?xml version="1.0" encoding="iso-8859-1"?>
<!-- Generator: Adobe Illustrator 19.2.1, SVG Export Plug-In . SVG Version: 6.00 Build 0)  -->
<svg version="1.1" id="Layer_1" xmlns="http://www.w3.org/2000/svg" xmlns:xlink="http://www.w3.org/1999/xlink" x="0px" y="0px"
	 width="1920px" height="76.787px" viewBox="0 0 1920 76.787" style="enable-background:new 0 0 1920 76.787;" xml:space="preserve"
	>
<g>
	<path style="fill:#FF0000;" d="M704.111,56.084c-14.513,2.563,3.111,5.611,0.957,8.539c3.875-0.726,12.13-0.025,8.226-2.338
		c7.616,6.105,23.01-2.911,31.245,1.993c0.355-0.6-4.412-2.634,1.278-4.05c8.514-0.5,7.899,2.332,11.374,3.607
		c2.525-1.696,15.458-2.769,14.206-1.93c5.658-1.427-6.038-6.037,1.862-8.571c5.348-4.049,12.627-0.505,18.935-1.573
		c7.591,2.96-7.565,1.94-10.711,3.285l21.461-1.695c6.317,2.177-2.829,4.013-9.157,3.457c8.561,2.697,19.585,0.389,22.108-2.996
		c5.369,0.791,8.207,0.046,13.263,1.476c-5.024,1.87-4.703,7.814-12.583,8.747c-12.964-0.494,4.696-4.502-6.335-5.481l-0.94,3.531
		c-4.732-2.056-8.494,0.549-13.57,0.759c-2.835-0.917,0.62-1.251,2.512-1.748c-9.167,0.168-16.459-1.8-23.373,2.102
		c12.352,3.433,30.957-0.749,36.363,3.311l24.592-4.709c-0.003-1.655-8.556-4.369-1.611-6.722
		c2.861,4.189,10.124,6.183,19.613,6.984c-3.508-4.588,15.15-4.016,10.383-7.727c-4.416,2.286-6.642-1.557-7.261-1.927
		c9.166-0.235,1.234-4.207,6.275-4.442c16.75,1.062-0.617,2.924,15.822,4.632c-3.471,2.035-12.311,6.597-21.433,8.469
		c0.637,2.038,9.124-0.23,12.967,2.103c-5.395-2.451,3.761-4.32-0.675-5.367c13.273-1.864,28.73-6.526,44.826-7.551
		c-2.5,6.837-27.132,5.067-22.049,13.151c7.888-0.993,7.856-4.311,14.185-3.783c5.373,4.104,18.624,0.524,29.386,0.413l-4.763-2.065
		c4.093-1.671,11.662-0.377,16.424,0.016l-1.24,0.902l4.68-1.284l0.891,0.646c5.155-2.095,18.319-0.075,28.188-1.326
		c-0.014-3.337-9.785-0.113-14.512-0.481c-1.289-0.755-10.426-2.188-6.008-4.487c12.272-0.02,20.806-4.04,34.696-3.944l-4.417-1.003
		c4.412-2.327,10.406-1.18,17.026-1.334c12.027,2.281-8.824,4.65-1.537,6.565c-4.716,2.958-12.945-0.367-14.191,3.876l7.576,4.612
		c6.324-2.84,13.296,1.369,17.731,0.719l-4.763-2.038c0.931-3.599,5.35-0.908,7.581-0.403l-3.208-5.251
		c-6.93-0.89-11.666,3.744-16.71,0.683c12.295-1.704,9.453-5.938,24.277-6.096c0.67,2.045-2.854,0.775-4.389,2.315
		c5.061,1.397,10.389-2.862,18.6-1.234c-4.7,1.295-12.297,3.4-6.274,6.18l4.396-3.982c3.788,0.608,2.239,2.154,3.79,2.275
		c5.392,0.732-1.246-4.093,7.27-3.113c1.269,0.768,4.097,1.644,2.857,2.54c9.785,0.091,4.704-1.301,13.846-3.255
		c-8.189,0.042-8.513-5.952-0.01-6.627c12.003,0.598,20.182-2.749,28.43,2.138l5.362-2.567c-3.44,3.693,7.599,1.226,11.4,1.825
		c1.264,4.036-18.004-0.01-17.996,6.575c7.891,0.579,4.453,2.624,1.914,4.415c8.543-0.692,3.156-4.703,6.924-7.389
		c0.017,1.649,14.545,0.401,9.509,3.973c7.261,0.186,8.509-3.978,13.862-3.256c-0.806,1.61-1.732,3.682-1.218,5.742
		c0.633-1.358,7.493,0.251,8.824,0.358c-1.256-0.754,2.508-3.423-3.795-2.239c1.568-3.138,14.851-0.274,14.5-2.894
		c0.661,3.604,13.592,0.606,20.221,2.027c-0.663-8.447-12.287,3.363-14.525-3.581c8.819-2.96,29.684-0.532,43.888-4.378
		c12.299,1.462,0.003,3.185,2.527,6.23c-11.343,1.513-14.203-0.939-24.001,0.657c10.751,1.372,28.422,0.242,36.303-2.403
		c11.708-0.498,13.007,8.063,27.212,5.785c-1.896-2.6-1.585-3.221-6.026-4.137c3.785-0.995,8.221-0.103,12.317-0.173
		c2.509-1.704-6.332-1.928-0.654-3.465c2.216,0.459,6.948,0.748,6.018,2.547l-0.946,0.257c13.564-2.583,9.822,6.134,21.479,0.966
		c-0.943-1.28-3.474,0.405-6.328-0.384c-2.202-1.971,5.021-4.913,10.419-5.809c-0.962,1.78,4.728,0.285,8.512,0.819
		c2.54,2.9-9.475,0.963-11.361,2.988l10.432,0.309l-2.196-0.43l11.34-2.979c-7.906,1.052-3.801-3.565-0.328-3.96
		c7.883,0.486,15.793,0.95,14.848,4.195c0.943-3.252,10.729-3.26,17.677-4.044c-7.583-1.044-0.964-2.726,1.235-3.772l11.383,3.033
		c-11.996,1.067,2.535,2.799-0.282,4.982c-3.455,3.334-10.732,1.783-17.06,1.428c12.356,5.681,17.366-3.468,28.116-0.863
		c0.002,1.452-0.942,3.155-5.67,2.932c1.895,0.944,9.785-3.014,17.056-1.493c-1.909-0.955-6.021-3.773,1.219-5.109l9.5,3.351
		c11.057,0.553,3.775-3.797,12.908-5.565l-5.989-2.312c0.928-3.064,12.309-0.158,12.604-3.511
		c-5.674-0.052-8.843,2.594-14.806,1.691c-2.253-3.267,7.565-1.827,10.989-3.607c12.339,1.293,9.803,1.43,18.99,3.871
		c0.345,4.957-15.142,6.434-13.178,12.974c11.985-1.19,29.353-3.15,37.235-1.499c10.737-1.747,9.761-5.482,8.173-8.226
		c4.437-0.597,6.626-0.214,9.476,0.427l-5.035,1.639c13.256-1.829,20.82-3.527,34.735-3.693c7.859-0.94,4.69-3.585,2.798-5.708
		l8.527-0.589l-1.298-0.558c1.901-2.912,9.477-1.995,15.157-1.945l-3.129,2.3c5.041,0.984,12.633,0.591,16.72-0.658
		c0.015,1.195-3.441,3.944-9.444,3.2l-0.947-1.023l-10.108,1.755c11.675-1.674,18.646,1.304,18.351,4.168
		c11.68-1.73-9.506-2.784,4.388-4.156c9.168,2.636,17.852,2.024,25.514,1.787c7.661-0.255,14.299-0.182,19.376,3.392
		c8.501-1.811,18.598-4.531,31.865-4.989c-0.004-2.094,8.852-0.996,7.563-3.508c-12.658-2.58-23.659,4.525-33.813,0.711
		c-5.656,1.106-3.749,2.953-6.288,4.202c-5.025,0.294-9.773,0.151-10.428-1.238c11.678-1.617,3.132-5.521,17.964-5.768
		c-1.887-1.843-13.907-1.074-19.257-1.549c1.566-1.059-0.036-2.263-3.509-3.141c3.798-1.859,12.287-3.392,16.704-4.9
		c-1.555,1.017,1.3,1.634,0.023,2.23l15.463-3.022c4.749,1.364,6.038,2.921,3.495,4.068c8.547,0.631,23.031-2.095,23.078,0.975
		c11.042-0.465-3.505-1.802-4.452-2.698l0.945-0.148l-11.68,0.182c-1.292-3.64,13.277,0.945,15.136-2.444
		c0.917-3.212,5.031-2.613,9.938-1.382c4.908,1.239,10.61,3.074,14.704,2.622l-9.457,4.39l8.22-0.976
		c-4.726,1.715-4.705,4.636-11.946,6.576c11.35,0.005,27.48,1.021,34.753,0.112c2.838,1.362,4.094,2.642,2.841,4.07
		c11.365-2.854,17.698,0.804,27.499,0.493c10.393-1.719-10.439-1.637-2.873-3.741c3.148,0.904,8.84-0.019,11.676-0.447
		c-3.147,0.768-14.214-0.25-21.806-0.813c5.694-0.03,5.057-1.933,6.638-2.736l-9.496-0.324c0.617-2.421,11.676-0.273,16.081-1.482
		c-2.804,2.086-1.252,2.135-4.06,4.256c8.204-0.987,20.519-1.122,27.49-0.067c4.107,0.692-3.461,1.025-5.678,1.633
		c1.893,1.277,8.2-0.977,9.788,0.59c-1.258,1.212-5.04,0.256-7.895,0.693l24.005-0.158c0,0.709-5.985,1.157-9.768,1.003
		c7.278,0.616,12.623-0.077,21.134-2.647c8.208,0.475,17.676,1.057,14.881,2.099c3.778-0.544,1.252-1.028,1.222-1.674
		c11.072-0.045,12.294-2.231,18.92-2.422l-5.028-0.979c10.725,0.913,2.493-1.845,11.967-1.135c-1.547,1.102-0.923,2.364,0.673,3.47
		c1.565-1.12,7.581-0.356,11.68-0.516c-2.547-0.939,8.814-1.167,2.184-1.975c9.488-0.96,13.896,0.173,20.843-1.092
		c-4.407-0.217,8.195-0.996,4.385-1.534c9.181-0.091,15.491,0.72,12.997,1.55c-3.175,0.013-8.249-0.244-7.892,0.419l16.715-0.537
		c4.14,0.254,9.481,0.252,10.143,0.929c5.348-0.931,15.788-0.095,19.882-1.048c-5.674,0.707-10.123,0.173-12.297,0.122l2.589-0.192
		l-1.349,0.004c0,0,1.805-0.309,3.61-0.618l3.611-0.568c-6.945-0.317-1.233,0.677-11.051,0.875
		c-4.254-0.462,0.557-0.984,5.329-1.333c4.771-0.368,9.499-0.582,5.07-0.897c-7.255-0.363-5.981,0.585-11.968,1.025l1.567,0.013
		l-13.573,0.633l3.473-0.795c-16.438,0.096-18.979-0.648-36.662-0.938c1.284,0.241,4.754,1.896-3.134,2.285
		c-5.662,0.52-6.321-0.554-11.039-0.65c2.82-0.263,5.35-1.283,9.135-0.619l-0.31-1.254c13.239-1.37,6.291-2.595,24.28-2.517
		c0.823-0.787,13.863-0.612,23.652-0.038l-4.75-0.754c10.086-0.572,1.909,0.91,14.843,0.643c5.382,1.264,15.216,2.351,7.96,2.935
		c9.168,0.253,12.296-0.122,20.538-0.004c5.054,0.492-2.524,0.491-1.571,0.999c6.017-0.143,13.587-0.339,9.128-0.533l11.406,0.111
		c0.302,0.049-3.78,0.077-5.38,0.079c4.435,0.023,12.953-0.156,15.461-0.173c-0.936,0.001-3.791,0.001-5.04,0.001
		c4.735-0.062,13.249-0.01,13.869,0.018c-6.935-0.059-7.567-0.185-14.828-0.213c0.62-0.049,1.864-0.115,5.66-0.003
		c-6.007-0.233-12.004-0.389-14.53-0.67c5.067,0.308,8.309,0.228,9.378,0.272c-4.543-0.228-13.592-0.563-16.642-0.55
		c-0.667-0.511-17.676-0.561-11.71-0.912c-0.945,0.163-7.581-0.063-11.065-0.386c0.317-0.313,9.145-0.056,12.93-0.119
		c17.694,0.792-0.311,0.349,3.816,0.769l13.5,0.61c-1.36-0.131,5.404,0.069-3.403-0.415c4.093-0.034,12.607,0.515,19.552,1.089
		c1.6,0.084-3.469-0.279-5.041-0.399c1.57,0.01,10.087,0.697-0.972-0.37c3.163,0.292-5.367-0.38,0.323,0.187
		c-4.42-0.317-16.424-1.41-11.676-1.232c-5.383-0.46-15.48-1.076-19.899-1.3c-1.274-0.379,3.782,0.172,6.002,0.229l-15.499-1.044
		l4.435,0.68c-11.358-1.122-18.61-0.599-27.759-0.642c1.253-0.748,8.842-0.367,14.828-0.322c-5.728-1.224-3.772,0.179-13.263-0.512
		c-1.273-0.223-1.6-0.443-0.98-0.645l-7.547,0.253c-2.208-0.239-0.962-0.357-0.001-0.344c-12.95,0.228,0.324,1.229-17.046,0.867
		c10.456,0.939,8.874-0.274,17.682,0.275c5.088,0.846-10.066,0.677-12.611,1.037c-8.51-0.489-9.489-2.198-20.221-1.745
		c7.568-0.228,0.309-1.063,11.041-0.577c6.001-0.238-3.173-0.633-4.424-1.346c-2.835,0.044,1.893,1.262-5.998,0.697l0.311-0.156
		c0,0-3.23,0.161-6.458,0.322c-3.231,0.192-6.461,0.382-6.461,0.382c-12.033-1.323-27.137,0.69-35.375-1.361l1.909,1.692
		c-7.568-0.083-18.308-0.337-23.671-0.116c1.239-1.003,6.3-0.946,11.662-1.114c-13.598-0.771-25.573-0.077-34.718,1.33
		c6.651,1.547,7.607,1.441,13.925,2.452c-8.818,2.587-10.451-1.802-21.819-0.639c-0.315-2,3.472-1.616,0.63-3.612
		c-4.727,1.234-12.636,0.76-18.003,1.891c-2.857-2.121,2.172-3.748,13.859-3.533c8.859,1.933,18.629-0.607,25.919,1.186
		l-4.435-1.295c8.855-0.207,14.204,0.316,21.77-0.163l-0.306,0.238l3.778-1.502l-4.094-0.207c2.824-0.831,11.338-1.812,13.866-1.685
		c-12.648-0.561-13.553,2.062-19.542,3.346c-11.379-0.529-15.839-4.018-23.405-2.787c-0.62-0.923-6.965-2.239-1.896-2.807
		c6.295-0.144,10.735,1.261,11.354,0.042c-6.635-0.334-4.108-0.96-14.205-1.352c-1.906,1.587-9.457,2.892-16.682,4.066
		c-7.587,0.672-17.389,0.267-23.41-0.551c7.585,0.06,15.156-1.417,13.244-2.883c-4.419,1.762-14.846-2.339-12.61,0.558
		c-8.836-0.586-23.698-1.157-24.664-3.815c8.359-0.507,16.46,1.45,23.545,1.271c-1.951-0.154-3.863-0.874-2.714-1.39l10.437,0.836
		c-7.897-1.599-6.332-2.313-16.441-2.645l0.952,0.785c-2.518-0.14-5.683-0.315-8.225-0.459l-0.317-2.353
		c-7.567,0.646-22.135-3.312-35.997-2.335l1.245-0.452c-11.054-1.238-11.973,3.896-23.977,3.994c3.472-1.102,1.877-2.283,1.255-3.58
		c-5.987,1.036-9.17-1.354-15.182-2.437c6.974,1.997-4.702,2.682,0.356,3.844c0.344,2.77-12,2.288-18.319,1.699
		c-3.781-3.896,19.577-1.137,10.073-5.307c-6.309-0.665-7.885,1.357-3.447,2.238c-7.9-0.793-19.903-1.768-25.616-4.434
		c-9.437,2.437-13.229,0.683-19.224,4.291c5.055,0.02,5.35-2.732,11.69-0.95l-6.942,2.571c-9.151-0.144-16.441-2.989-22.754-3.633
		l6.632-1.017l-0.321,0.454c2.527-1.18,11.058-0.062,10.093-2.274c-5.983,2.441-10.748-0.431-18.626,1.157l0.31-0.457
		c-13.879,1.812-24.032-5.727-32.831-0.09c2.525,0.005,7.598,2.518,6.02,3.613c-3.185-1.554-11.698-1.381-11.398-3.144l2.849-0.479
		c-7.896-0.801-12.645-1.268-15.496-0.774c-2.185,2.122,0.052,3.891-5.642,4.928c-13.912-1.853,5.642-4.945-3.824-7.186
		l-12.945,1.865l-2.857-2.156c-19.249-2.836-34.081,3.673-54.601,3.145c-0.331-3.744,14.5-4.744,19.551-4.792
		c-6.333-3.426-15.462,0.633-23.993-1.886c-7.917-0.794-13.88,2.329-12.622,4.472c-9.767,1.074-6.958-2.41-8.207-3.106
		c-3.165,4.027-15.478,2.217-23.352,2.953l-0.363-2.374l-12.293,2.66c3.162,0.315,0.331,2.402,0.336,3.892l-3.152-0.289
		c6.02,3.385,12.802,2.35,19.624,1.467c6.822-0.879,13.684-1.586,19.862,2.152c-3.779,0.813,1.292,2.136-2.508,2.958
		c-3.149-0.292-3.784-0.631-4.11-1.539c-1.892,1.863-6.93,3.476-0.294,3.461c-0.301,4.913-13.579,3.513-22.712,5.125
		c-7.276-3.279,7.563-4.712,11.333-7.001c-3.474,0.289-6.321,2.413-11.367,1.083l1.234-3.727c-12.611,1.841-3.442,3.235-6.286,6.845
		c-3.425,4.774-11.359-0.343-14.829-0.051l3.781-0.877c-9.785-1.746-11.986,2.287-20.808,1.856l-4.146-3.099
		c11.095,3.968,13.545-5.172,19.879-3.101c-16.12-3.864,3.45-7.82,8.487-10.888c-6.961,0.529-13.262-0.064-17.052-2.256
		c-10.103,4.775-21.187-2.342-30.932,3.483c-5.37-0.811,4.709-2.64-0.969-2.87c-10.419-0.666-21.475-0.224-32.514,1.918
		c-5.708-0.207-4.734-2.006-6.332-3.72c-13.745-1.446-23.292,0.178-33.156,1.857c-9.864,1.691-20.044,3.459-35.05,2.111l4.403-2.19
		c-6.3-0.571-11.682-1.398-14.807,1.579c-7.942-7.28-26.844,4.163-36.965-3.614c-13.277-1.509-13.889,4.693-24.314,5.771
		c-0.003-1.659,3.16-4.697-2.237-5.496c-34.083,2.373-64.728,2.782-102.292,4.075l3.147-1.411
		c-24.319-0.669-48.286,6.517-68.495,4.228c-3.797,1.037-15.151,2.522-11.663,5.449c4.723,0.374,5.378,4.072,5.069,6.38
		c-17.986,3.279-8.849-5.333-20.859-4.254c-3.809-5.608,7.564-3.75,7.557-8.745l-17.365,3.668
		c-9.791-1.712-19.574,1.483-28.104-1.096c3.799,0.595,1.233-4.208,7.564-2.098l-1.272,0.901c14.544,0.414,7.909-2.727,20.858-4.077
		c-11.381,1.474-26.842,2.963-36.957,1.934c2.225,3.768-8.2,1.709-11.036,4.139l-0.635-0.375c0.003,1.647-6.278,2.823-8.203,3.346
		l-2.532-4.772c-4.436,0.671,1.261,2.391-3.158,3.042c-6.28,1.168-28.736,1.891-30.324-3.077c-7.601,0.471-9.794,3.227-17.665,2.68
		l2.804-2.38c-16.717-0.808-37.246,1.065-53.073-1.467c-12.914,1.401-23.974,2.311-32.156,5.555
		c3.467-0.415,13.589,0.508,7.265,3.236c-3.473,1.969-8.831,1.313-14.192,2.208c1.251-2.384-13.6-2.048-2.872-3.852
		c-2.71-5.116-23.138,1.352-22.977-3.733c-2.509,1.579-17.755,1.002-23.458,3.785c-1.271-2.164,8.232-1.656,8.211-3.166
		l-6.941,0.835l-0.002-1.493c-13.297-0.982-15.764,5.124-23.657,6.159l0.306-0.576l-5.361,0.878l6.289-4.075
		c-8.513,0.734-12.916,4.336-22.388,5.279l-0.949-1.214l-5.705,1.44l0.665-1.119c-5.377,3.747-17.689,2.528-22.725,5.645
		c-3.786-0.485-6.986-4.854-12.023-1.737l0.94-4.418c12.621-0.826,4.713,3.019,17.992,1.135c-9.81-5.616-37.286-4.157-55.601-3.293
		c-14.81,3.161-39.161-0.561-45.454,5.624l1.564-2.484l-24.94-1.278c-21.167,1.59-42.954,0.672-59.055,4.179l-4.432-1.64
		c-8.34,3.298-22.547,4.286-36.047,5.437c-13.499,1.123-26.287,2.341-31.789,5.589c-9.463-1.181,2.835-2.438,3.78-3.61
		c-6.968-0.254-18.622,4.01-25.272,1.467c0-0.91,9.791-1.15,5.371-1.581c-5.057-1.536-7.239,1.907-12.95,0.217
		c2.53,1.665-9.147,3.984-17.643,4.479c1.566,0.033,1.566,0.033,2.236,0.213c1.239,1.237-5.088,1.096-8.563,1.352l1.26-0.478
		c-21.929,1.503-45.442,2.541-69.24,3.163c-23.798,0.619-47.878,0.838-70.94,0.919l8.496-0.805
		c-6.621,0.643-18.33,0.556-22.097,0.532l0.958-0.085c-6.163-0.391-9.638,0.018-12.757,0.324c-3.119,0.324-5.882,0.556-10.624,0.171
		l1.872-0.151c-14.841,0.394-23.665,0.098-38.179,1.021c-11.4,0.313-10.141,0.09-18.047,0.416c-6.601,0.472-9.723,0.693-10.083,0.72
		l3.175-0.16c3.474-0.065-6.948,0.4-11.675,0.621c3.474-0.096,1.6-0.142,14.89,0.037c9.783-0.091,9.505,0.475,20.547,0.667
		c3.148-0.235,7.101-0.106,11.525,0.122c4.424,0.207,9.321,0.533,14.358,0.199c-5.36,0.527,12.009,0.623,3.197,1.162
		c2.056,0.331,7.418,0.369,13.257,0.381c5.84,0.021,12.157,0.006,16.122,0.57c-1.287,0.164-0.981,0.399-2.86,0.447
		c11.061-0.174,7.59,0.939,15.796,1.273l-0.313-1.104c3.165-0.27,4.118,0.548,6.948,0.445c-2.236-0.217-6.949-0.866-4.46-1.258
		c3.792-0.173,6.957-0.498,11.051-0.427c0.047,0.468-2.806,0.616-4.733,0.709l9.497,0.925c-3.167,0.309-7.266,0.185-10.067,0.741
		c11.664,0.791,0.935,0.408,6.622,1.606c-1.594-1.503,10.117-0.201,16.411-0.289c0.654,0.67-4.421,0.023-5.988,0.423
		c6.021,1.638,10.524,1.804,15.454,1.595c4.929-0.185,10.288-0.722,18.02-0.072l-3.165,0.378c7.287-0.224,12.356,1.789,17.076,0.867
		c6.965,0.656,1.277,2.326,12.022,2.826c-3.166-2.324,12.642,1.052,12.919-1.351l8.236,1.825c7.275-1.072-1.946-4.286,12.278-4.097
		c12.95,1.388-1.222,4.289,6.349,5.984l3.164-1.328l6.331,1.347l-0.961,0.083c3.794-0.321,10.725,0.43,10.746,1.271l-5.334,1.026
		c3.14-0.533,9.376,0.723,15.652,1.702c6.278,0.963,12.594,1.623,15.895-0.522c3.728,1,11.405,1.355,10.426,2.816
		c3.382-1.945,16.818,1.544,21.824,0.424c-0.652,0.721,4.106,2.195,7.897,1.778c-5.075-1.101-1.897-1.773,1.542-2.869
		c4.458,1.837,17.074,0.986,18.99,3.89c6.946-1.195,4.401-3.36,5.934-5.337c4.454,1.893,18.672,2.106,16.168,5.379
		c-3.816-0.582-12.344-1.61-10.732,0.683c7.261,1.572,3.147-0.764,9.129-0.835l2.924,3.191c3.536-0.189,8.482,0.08,13.523,0.916
		c-7.88-1.944,5.037-2.185,0.302-3.791l-7.56,2.146c-9.168-0.274-1.925-1.959-5.401-2.967c16.113,0.002,12.926-3.641,28.074-4.853
		c2.841,0.698,7.893,1.848,9.483,1.996c-5.055,0.02-4.075,3.356-1.206,4.096c8.464-2.492,15.157,2.394,22.105,3.376
		c-6.021-1.094-2.857-3.168-0.657-3.935c14.512-1.551,5.696,1.503,12.025,3.346c22.391,0.419,36.641,5.766,54.615,3.917
		l-8.525-3.738l-2.83,3.116c-6.646-2.73,1.215-7.148,4.995-9.188c0.962,1.133,12.022,0.814,7.607,2.531l10.743-1.14
		c-1.602-1.488-8.55-1.038-3.534-2.46c3.533,1.106,14.556,2.127,7.631,3.91c5.673,0.265,12.93-0.718,11.672-2.738
		c9.147-0.002-0.941,4.293-5.019,5.521c7.247,0.403,6.318,3.316,4.129,4.19l10.08-0.1c-2.195,0.87-2.194,2.246-4.378,3.114
		c6.632,1.509,11.36-2.156,17.029,0.919l2.528-2.824c18.316,2.989,16.438,3.331,33.507,4.203l-2.853-2.303
		c12.915-3.63,9.471,3.843,26.839,2.706c9.781-1.107,16.107-1.986,14.815-5.674c5.659-1.243,6.95,0.964,9.498,2.403
		c4.399-1.954,13.854-5.597,20.805-3.13c-4.726,1.06-8.511,1.908-12.931,2.396c1.292,3.712,15.156,1.177,22.414,3.059
		c5.058-1.649,21.477-5.941,30.607-9.161c-4.131-3.172-2.572-7.659,5.631-10.708c-1.256,2.394,11.074,2.509,16.738,4.255
		c-2.805,2.245,12.662,5.804,0.689,6.638c-3.476-1.245-5.075-4.528-9.819-3.369c2.856,2.44,10.466,5.307,18.358,7.609
		c-0.605,1.21-4.724,2.709-8.822,2.643C705.726,57.815,704.428,57.055,704.111,56.084"/>
</g>
<polygon style="fill:#FF0000;" points="1953.187,25 1631,25 1624.5,12 1567,5.5 1531.5,25 -31.36,25 -31.36,-62.879 
	1953.187,-62.879 "/>
</svg>
