<?xml version="1.0" encoding="utf-8"?>
<!-- Generator: Adobe Illustrator 19.2.1, SVG Export Plug-In . SVG Version: 6.00 Build 0)  -->
<svg version="1.1" id="Layer_1" xmlns="http://www.w3.org/2000/svg" xmlns:xlink="http://www.w3.org/1999/xlink" x="0px" y="0px"
	 viewBox="0 0 121.903 68.804" style="enable-background:new 0 0 121.903 68.804;" xml:space="preserve">
<g>
	<g>
		<path d="M15.234,20.678v27.936H6.902V29.01H1.548l-0.564-8.332H15.234z"/>
		<path d="M38.577,30.097v18.517h-8.332v-6.682H16.599v-7.85l6.159-13.404h9.178l-6.159,13.404h4.468v-3.985H38.577z"/>
		<path d="M99.788,20.678v27.936h-8.332V29.01h-5.354l-0.563-8.332H99.788z"/>
		<path d="M112.063,49.821c-5.312,0.805-10.305-2.335-11.954-7.246c0,0,7.285-3.019,7.325-2.938
			c0.967,1.328,2.255,2.013,3.623,1.812s2.134-1.288,1.933-2.455c-0.161-1.087-0.685-1.812-3.261-1.812h-8.534l0.886-16.464h16.906
			l-0.281,6.924h-8.977l-0.201,2.737c4.669,0,6.642,0.362,8.412,1.852c1.57,1.328,2.979,3.542,2.979,7.125
			C120.919,43.783,118.021,48.896,112.063,49.821z"/>
	</g>
	<g>
		<path d="M70.469,0.848c6.199,4.933,10.95,8.946,14.254,12.041v3.177c-0.244,0.461-6.58,5-19.006,13.616v0.312
			c1.041,0.625,3.471,2.421,7.29,5.39h0.95c0-0.57,2.321-3,6.965-7.29h3.801v3.489l-6.964,7.602
			c4.643,3.168,6.964,5.177,6.964,6.027v2.213c0,0.426-0.208,0.638-0.625,0.638H80.61l-6.652-5.077l-8.24,7.929h-2.851
			c-0.77,0-7.738-2.326-20.905-6.978v-3.802l14.254-10.452c-0.588-0.851-4.177-3.702-10.765-8.553v-4.113L66.993,0.848H70.469z
			 M49.875,41.084v0.326c8.525,2.95,13.068,4.426,13.63,4.426l5.701-6.014V39.51c-0.344-0.643-3.091-2.756-8.24-6.34
			C54.531,37.496,50.834,40.134,49.875,41.084z M52.102,19.229c4.443,3.765,7.507,6.086,9.189,6.964
			c9.92-6.751,15.513-10.761,16.779-12.027c-6.117-5.149-9.177-7.792-9.177-7.928C59.781,12.816,54.183,17.146,52.102,19.229z"/>
	</g>
	<g>
		<path d="M30.088,64.628c-1.409,1.389-3.062,2.062-5.002,2.062h-5.798V52.501h5.798c1.939,0,3.593,0.694,5.002,2.083
			c1.389,1.388,2.083,3.062,2.083,5.002C32.171,61.546,31.477,63.22,30.088,64.628z M27.781,59.626c0-0.693-0.245-1.326-0.756-1.878
			c-0.469-0.551-1.143-0.837-1.939-0.837h-1.409v5.39h0.449c1.021,0.021,2.021,0.041,2.858-0.796
			C27.557,60.953,27.781,60.279,27.781,59.626z"/>
		<path d="M36.706,56.4v1.327h5.716v3.553h-5.716v1.408h5.839v4.002H32.296V52.521h10.229V56.4H36.706z"/>
		<path d="M55.8,60.627c0,2.021-0.694,3.736-2.124,5.186c-1.429,1.429-3.144,2.144-5.165,2.144v-4.39
			c0.816,0,1.511-0.306,2.042-0.857c0.572-0.571,0.837-1.266,0.837-2.082v-8.085h4.41V60.627z"/>
		<path d="M68.704,52.542v8.615c0,1.675-0.593,3.145-1.776,4.309c-1.185,1.184-2.634,1.796-4.328,1.796
			c-1.674,0-3.104-0.612-4.308-1.796c-1.184-1.164-1.776-2.634-1.776-4.309v-8.615h4.41v8.615c0,0.939,0.755,1.675,1.674,1.675
			c0.939,0,1.694-0.735,1.694-1.675v-8.615H68.704z"/>
		<path d="M78.466,66.69h-8.901V52.521h4.39v9.759h4.512V66.69z"/>
		<path d="M91.656,66.69h-4.409v-4.9h-3.94v4.9h-4.431V52.521h4.431v4.859h3.94v-4.859h4.409V66.69z"/>
		<path d="M104.91,65.017c-1.49,1.47-3.267,2.225-5.369,2.225c-2.104,0-3.879-0.755-5.37-2.225c-1.47-1.49-2.225-3.287-2.225-5.37
			c0-2.103,0.755-3.899,2.225-5.369c1.491-1.49,3.267-2.246,5.37-2.246c2.103,0,3.879,0.756,5.369,2.246
			c1.49,1.47,2.246,3.267,2.246,5.369C107.156,61.729,106.401,63.526,104.91,65.017z M101.787,57.401
			c-0.634-0.633-1.368-0.939-2.246-0.939c-0.898,0-1.634,0.307-2.267,0.939c-0.612,0.612-0.919,1.367-0.919,2.245
			s0.307,1.634,0.919,2.267c0.633,0.612,1.368,0.919,2.267,0.919c0.878,0,1.612-0.307,2.246-0.919
			c0.652-0.633,0.959-1.389,0.959-2.267S102.44,58.014,101.787,57.401z"/>
	</g>
</g>
</svg>
