<?xml version="1.0" encoding="utf-8"?>
<!-- Generator: Adobe Illustrator 21.1.0, SVG Export Plug-In . SVG Version: 6.00 Build 0)  -->
<svg version="1.1" id="Layer_1" xmlns="http://www.w3.org/2000/svg" xmlns:xlink="http://www.w3.org/1999/xlink" x="0px" y="0px"
	 viewBox="0 0 134.2 68.8" style="enable-background:new 0 0 134.2 68.8;" xml:space="preserve">
<g>
	<g>
		<path d="M40.8,45.3c-2.1,2.2-4.7,3.2-7.7,3.2c-2.9,0-5.5-1-7.7-3.2c-2.1-2.1-3.2-4.6-3.2-7.7c0-2.9,1.2-5.6,3-7.5
			c-0.4-0.9-0.5-1.8-0.5-2.7c0-2.3,0.9-4.3,2.5-6c1.7-1.6,3.6-2.5,5.9-2.5c2.4,0,4.3,0.8,5.9,2.5c1.7,1.7,2.5,3.6,2.5,6
			c0,0.9-0.2,1.8-0.4,2.7c1.8,1.9,2.9,4.6,2.9,7.5C43.9,40.7,42.9,43.3,40.8,45.3z M33,35.7c-0.9,0-2,0.8-2,2c0,1.1,1.1,2,2,2
			c1.2,0,2-1.1,2-2.1c0-0.1,0-0.2-0.1-0.3c0-0.4-0.2-0.7-0.5-1.1C34,35.9,33.5,35.7,33,35.7z M33,26.1c-0.7,0-1.4,0.5-1.4,1.4
			c0,0.7,0.7,1.4,1.4,1.4c0.9,0,1.4-0.8,1.4-1.5c0-0.4-0.1-0.7-0.4-1C33.8,26.2,33.4,26.1,33,26.1z"/>
		<path d="M107,33.8c-0.2,0.4-0.4,0.8-0.5,1.2l-5.7,12.6h-8.9l3.3-7.1c-4.8-1-8.5-5.3-8.5-10.4c0-5.8,4.8-10.5,10.6-10.5
			c5.8,0,10.6,4.7,10.6,10.5C107.7,31.3,107.5,32.6,107,33.8z M99.6,30c0-1.3-1.1-2.4-2.5-2.4c-1.4,0-2.5,1.1-2.5,2.4
			c0,1.4,1.1,2.5,2.5,2.5C98.5,32.5,99.6,31.4,99.6,30z"/>
	</g>
	<g>
		<path d="M72.3,1.2c6,4.8,10.6,8.7,13.8,11.7v3.1c-0.2,0.4-6.4,4.9-18.4,13.2v0.3c1,0.6,3.4,2.3,7.1,5.2h0.9c0-0.6,2.3-2.9,6.8-7.1
			h3.7V31l-6.8,7.4c4.5,3.1,6.8,5,6.8,5.9v2.1c0,0.4-0.2,0.6-0.6,0.6h-3.4l-6.5-4.9l-8,7.7h-2.8c-0.7,0-7.5-2.3-20.3-6.8v-3.7
			l13.8-10.1c-0.6-0.8-4.1-3.6-10.4-8.3v-4L68.9,1.2H72.3z M52.3,40.2v0.3c8.3,2.9,12.7,4.3,13.2,4.3l5.5-5.8v-0.3
			c-0.3-0.6-3-2.7-8-6.2C56.8,36.7,53.3,39.3,52.3,40.2z M54.5,19c4.3,3.7,7.3,5.9,8.9,6.8c9.6-6.6,15.1-10.4,16.3-11.7
			c-5.9-5-8.9-7.6-8.9-7.7C61.9,12.8,56.5,17,54.5,19z"/>
	</g>
	<g>
		<path d="M13.4,63.1c-1.4,1.3-3,2-4.9,2H2.9V51.3h5.6c1.9,0,3.5,0.7,4.9,2c1.3,1.3,2,3,2,4.9C15.4,60.1,14.7,61.7,13.4,63.1z
			 M11.1,58.2c0-0.7-0.2-1.3-0.7-1.8c-0.5-0.5-1.1-0.8-1.9-0.8H7.1v5.2h0.4c1,0,2,0,2.8-0.8C10.9,59.5,11.1,58.9,11.1,58.2z"/>
		<path d="M19.8,55.1v1.3h5.5v3.4h-5.5v1.4h5.7v3.9h-9.9V51.3h9.9v3.8H19.8z"/>
		<path d="M39.1,56.7c2.6,0.5,3.8,2.5,3.5,4.4c-0.2,1.6-0.7,2.8-1.9,3.7c-1.3,1-3.2,0.9-4.8,0.9c-1.6,0-4.1-0.5-4.1-0.5l0.8-4.1
			c0,0,2.1,0.3,3.7,0.4c0.8,0,1.7,0.2,1.9-0.5c0.1-0.3,0.1-0.8-1-1c0,0,0,0-1.3-0.2c-1.2-0.2-1.8-0.3-1.8-0.3c-2-0.4-2.8-2.4-2.6-4
			c0.2-1.6,0.7-2.8,1.9-3.7c1.3-1,2.8-1.1,4.3-1c1.5,0.1,4.2,0.6,4.2,0.6l-0.9,4c0,0-2.4-0.3-3.4-0.4c-1.3-0.1-1.7-0.2-1.9,0.4
			c-0.1,0.4,0.2,0.7,0.4,0.8c0,0,0.2,0.1,1.6,0.3C38.5,56.6,39.1,56.7,39.1,56.7z"/>
		<path d="M47.4,55.1v1.3h5.5v3.4h-5.5v1.4h5.7v3.9h-9.9V51.3H53v3.8H47.4z"/>
		<path d="M64.7,55.5h-3.6v9.5h-4.3v-9.5h-3.6v-4.2h11.4V55.5z"/>
		<path d="M69.2,55.1v1.3h5.5v3.4h-5.5v1.4h5.7v3.9H65V51.3h9.9v3.8H69.2z"/>
		<path d="M90,51.3v13.8h-4.3v-6.7l-2.9,3.9l-3-3.9v6.7h-4.3V51.3h4.3v0h0l2.9,3.8l2.9-3.8v0H90z"/>
		<path d="M102.7,60.7c0,1.2-0.5,2.3-1.2,3.1c-0.8,0.8-1.8,1.3-3.6,1.3h-7.3V51.3l6.2,0c1.8,0,2.7,0.4,3.5,1.2c0.8,0.8,1,1.8,1,2.9
			c0,1-0.3,1.6-0.6,1.9c0.2,0,0.5,0.1,0.8,0.4C102.3,58.6,102.7,59.5,102.7,60.7z M94.7,54.5v2h1.9c0.4,0,0.7-0.1,0.9-0.3
			c0.2-0.2,0.3-0.4,0.3-0.7c0-0.6-0.4-1-1-1H94.7z M98.9,60.7c0-0.6-0.5-1-1-1h-3.2v2.1h2.9c0.5,0,0.8-0.1,1-0.3
			C98.8,61.3,98.9,61,98.9,60.7z"/>
		<path d="M114,67.6l-3.4-4.6c-0.3,0-0.6,0.1-0.9,0.1h-2.5v2h-4.3V51.3h6.8c1.6,0,3.1,0.5,4.2,1.6c1.1,1.1,1.7,2.6,1.7,4.2
			c0,1.4-0.5,2.7-1.3,3.7l3.1,4.2L114,67.6z M109.7,58.8c0.9,0,1.6-0.8,1.6-1.6c0-0.9-0.7-1.6-1.6-1.6h-2.5v3.3H109.7z"/>
		<path d="M129.1,63.5c-1.4,1.4-3.2,2.2-5.2,2.2c-2,0-3.8-0.7-5.2-2.2c-1.4-1.4-2.2-3.2-2.2-5.2c0-2,0.7-3.8,2.2-5.2
			c1.4-1.4,3.2-2.2,5.2-2.2c2,0,3.8,0.7,5.2,2.2c1.4,1.4,2.2,3.2,2.2,5.2C131.3,60.3,130.6,62,129.1,63.5z M126.1,56.1
			c-0.6-0.6-1.3-0.9-2.2-0.9c-0.9,0-1.6,0.3-2.2,0.9c-0.6,0.6-0.9,1.3-0.9,2.2c0,0.9,0.3,1.6,0.9,2.2c0.6,0.6,1.3,0.9,2.2,0.9
			c0.9,0,1.6-0.3,2.2-0.9c0.6-0.6,0.9-1.3,0.9-2.2C127,57.4,126.7,56.7,126.1,56.1z"/>
	</g>
</g>
</svg>
